<?xml version="1.0" encoding="UTF-8"?>
<svg id="Layer_2" data-name="Layer 2" xmlns="http://www.w3.org/2000/svg" viewBox="0 0 1093.33 168.02">
  <defs>
    <style>
      .cls-1 {
        fill: #1c3a71;
      }

      .cls-2 {
        fill: #7eb2de;
      }

      .cls-3 {
        fill: #1a3c75;
      }

      .cls-4 {
        fill: #b4a2d8;
      }
    </style>
  </defs>
  <g id="Layer_4" data-name="Layer 4">
    <g>
      <g>
        <polyline class="cls-3" points="70.57 168.01 70.57 76.84 38.7 0 0 .11 70.57 168.01"/>
        <path class="cls-1" d="M106.45,57.67c-.06.68-.1,1.37-.1,2.07v-20.57l.03-.02v18.52h.07Z"/>
        <path class="cls-3" d="M176.66,168.02h-38.74s-22.05-53.15-22.05-53.15c4.32,1,8.82,1.53,13.45,1.53,8.49,0,16.57-1.78,23.86-4.99l23.48,56.61Z"/>
        <path class="cls-2" d="M106.35,111.79v56.22h-35.78V60.94c1.07,22.9,15.51,42.34,35.78,50.85Z"/>
        <path class="cls-4" d="M129.32,0c-.58,0-1.15.03-1.73.05v-.05h-57.02v60.94c1.07,22.9,15.51,42.34,35.78,50.85,3.05,1.28,6.23,2.32,9.52,3.08,4.32,1,8.82,1.53,13.45,1.53,8.49,0,16.57-1.78,23.86-4.99,20.6-9.05,34.96-29.47,34.96-53.21,0-32.14-26.33-58.2-58.82-58.2ZM140.92,81.88c-3.06,1.37-6.46,2.13-10.04,2.13-13.55,0-24.53-10.87-24.53-24.27v-20.57l.03-.02v-3.68h23.78v.02c.24,0,.48-.02.72-.02,13.54,0,24.52,10.87,24.52,24.27,0,9.86-5.94,18.35-14.48,22.14Z"/>
      </g>
      <g>
        <path class="cls-3" d="M355.12,38.59l-40.78,111.2h-27.08l-40.78-111.2h23.9l30.59,88.41,30.43-88.41h23.74Z"/>
        <path class="cls-3" d="M370.01,47.27c-2.6-2.49-3.9-5.6-3.9-9.32s1.3-6.82,3.9-9.32c2.6-2.49,5.87-3.74,9.8-3.74s7.19,1.25,9.8,3.74c2.6,2.5,3.9,5.6,3.9,9.32s-1.3,6.83-3.9,9.32c-2.6,2.5-5.87,3.74-9.8,3.74s-7.2-1.25-9.8-3.74ZM390.8,61.53v88.26h-22.3V61.53h22.3Z"/>
        <path class="cls-3" d="M412.39,81.6c3.56-6.9,8.42-12.21,14.58-15.93,6.16-3.72,13.01-5.58,20.55-5.58,5.74,0,11.2,1.25,16.41,3.74,5.2,2.5,9.34,5.81,12.43,9.96V31.9h22.62v117.89h-22.62v-13.06c-2.76,4.36-6.64,7.86-11.63,10.51-4.99,2.65-10.78,3.98-17.36,3.98-7.43,0-14.23-1.91-20.39-5.74-6.16-3.82-11.02-9.21-14.58-16.17-3.56-6.96-5.34-14.95-5.34-23.98s1.78-16.83,5.34-23.74ZM473.32,91.72c-2.13-3.88-4.99-6.85-8.6-8.92-3.61-2.07-7.49-3.11-11.63-3.11s-7.97,1.01-11.47,3.03c-3.5,2.02-6.35,4.97-8.52,8.84-2.18,3.88-3.27,8.47-3.27,13.78s1.09,9.96,3.27,13.94c2.18,3.98,5.04,7.04,8.6,9.16,3.56,2.12,7.35,3.19,11.39,3.19s8.02-1.04,11.63-3.11c3.61-2.07,6.48-5.04,8.6-8.92,2.12-3.88,3.19-8.52,3.19-13.94s-1.06-10.06-3.19-13.94Z"/>
        <path class="cls-3" d="M520.4,81.6c3.56-6.9,8.39-12.21,14.5-15.93,6.11-3.72,12.93-5.58,20.47-5.58,6.58,0,12.35,1.33,17.29,3.98,4.94,2.66,8.89,6,11.87,10.04v-12.59h22.46v88.26h-22.46v-12.9c-2.87,4.14-6.83,7.57-11.87,10.28-5.05,2.71-10.86,4.06-17.44,4.06-7.44,0-14.21-1.91-20.31-5.74-6.11-3.82-10.94-9.21-14.5-16.17-3.56-6.96-5.34-14.95-5.34-23.98s1.78-16.83,5.34-23.74ZM581.33,91.72c-2.13-3.88-4.99-6.85-8.6-8.92-3.61-2.07-7.49-3.11-11.63-3.11s-7.97,1.01-11.47,3.03c-3.5,2.02-6.35,4.97-8.52,8.84-2.18,3.88-3.27,8.47-3.27,13.78s1.09,9.96,3.27,13.94c2.18,3.98,5.04,7.04,8.6,9.16,3.56,2.12,7.35,3.19,11.39,3.19s8.02-1.04,11.63-3.11c3.61-2.07,6.48-5.04,8.6-8.92,2.12-3.88,3.19-8.52,3.19-13.94s-1.06-10.06-3.19-13.94Z"/>
        <path class="cls-3" d="M724.07,149.78l-24.53-43.33h-10.51v43.33h-22.3V38.59h41.74c8.6,0,15.93,1.51,21.98,4.54s10.59,7.12,13.62,12.27c3.03,5.15,4.54,10.91,4.54,17.28,0,7.33-2.13,13.94-6.37,19.83-4.25,5.89-10.57,9.96-18.96,12.19l26.6,45.08h-25.81ZM689.02,89.72h18.64c6.05,0,10.57-1.46,13.54-4.38,2.97-2.92,4.46-6.98,4.46-12.19s-1.49-9.05-4.46-11.87c-2.97-2.81-7.49-4.22-13.54-4.22h-18.64v32.66Z"/>
        <path class="cls-3" d="M850.24,112.35h-64.52c.53,6.37,2.76,11.37,6.69,14.98,3.93,3.61,8.76,5.42,14.5,5.42,8.28,0,14.18-3.56,17.68-10.67h24.06c-2.55,8.5-7.44,15.48-14.66,20.95-7.22,5.47-16.09,8.2-26.6,8.2-8.5,0-16.12-1.88-22.86-5.66-6.75-3.77-12-9.11-15.77-16.01-3.77-6.9-5.66-14.87-5.66-23.9s1.86-17.15,5.58-24.06c3.72-6.9,8.92-12.21,15.61-15.93,6.69-3.72,14.39-5.58,23.1-5.58s15.9,1.81,22.54,5.42c6.64,3.61,11.79,8.74,15.45,15.37,3.66,6.64,5.5,14.26,5.5,22.86,0,3.19-.21,6.05-.64,8.6ZM827.77,97.37c-.11-5.74-2.18-10.33-6.21-13.78-4.04-3.45-8.98-5.18-14.82-5.18-5.52,0-10.17,1.67-13.94,5.02-3.77,3.35-6.08,7.99-6.93,13.94h41.9Z"/>
        <path class="cls-3" d="M889.42,31.9v117.89h-22.3V31.9h22.3Z"/>
        <path class="cls-3" d="M911.01,81.6c3.56-6.9,8.39-12.21,14.5-15.93,6.11-3.72,12.93-5.58,20.47-5.58,6.58,0,12.35,1.33,17.29,3.98,4.94,2.66,8.89,6,11.87,10.04v-12.59h22.46v88.26h-22.46v-12.9c-2.87,4.14-6.83,7.57-11.87,10.28-5.05,2.71-10.86,4.06-17.44,4.06-7.44,0-14.21-1.91-20.31-5.74-6.11-3.82-10.94-9.21-14.5-16.17-3.56-6.96-5.34-14.95-5.34-23.98s1.78-16.83,5.34-23.74ZM971.94,91.72c-2.13-3.88-4.99-6.85-8.6-8.92-3.61-2.07-7.49-3.11-11.63-3.11s-7.97,1.01-11.47,3.03c-3.5,2.02-6.35,4.97-8.52,8.84-2.18,3.88-3.27,8.47-3.27,13.78s1.09,9.96,3.27,13.94c2.18,3.98,5.04,7.04,8.6,9.16,3.56,2.12,7.35,3.19,11.39,3.19s8.02-1.04,11.63-3.11c3.61-2.07,6.48-5.04,8.6-8.92,2.12-3.88,3.19-8.52,3.19-13.94s-1.06-10.06-3.19-13.94Z"/>
        <path class="cls-3" d="M1068.17,149.78l-18.16-27.4-16.09,27.4h-23.9l28.83-44.29-29.15-43.97h25.17l18,27.24,16.25-27.24h23.9l-28.99,43.97,29.31,44.29h-25.17Z"/>
      </g>
    </g>
  </g>
</svg>