<svg id="wave" style="transform:rotate(180deg); transition: 0.3s" viewBox="0 0 1440 100" version="1.1" xmlns="http://www.w3.org/2000/svg"><defs><linearGradient id="sw-gradient-0" x1="0" x2="0" y1="1" y2="0"><stop stop-color="rgba(255, 255, 255, 1)" offset="0%"></stop><stop stop-color="rgba(251, 251, 251, 1)" offset="100%"></stop></linearGradient></defs><path style="transform:translate(0, 0px); opacity:1" fill="url(#sw-gradient-0)" d="M0,70L240,61.7C480,53,960,37,1440,38.3C1920,40,2400,60,2880,65C3360,70,3840,60,4320,53.3C4800,47,5280,43,5760,40C6240,37,6720,33,7200,31.7C7680,30,8160,30,8640,31.7C9120,33,9600,37,10080,35C10560,33,11040,27,11520,25C12000,23,12480,27,12960,36.7C13440,47,13920,63,14400,71.7C14880,80,15360,80,15840,76.7C16320,73,16800,67,17280,60C17760,53,18240,47,18720,48.3C19200,50,19680,60,20160,56.7C20640,53,21120,37,21600,33.3C22080,30,22560,40,23040,41.7C23520,43,24000,37,24480,41.7C24960,47,25440,63,25920,66.7C26400,70,26880,60,27360,50C27840,40,28320,30,28800,26.7C29280,23,29760,27,30240,30C30720,33,31200,37,31680,33.3C32160,30,32640,20,33120,20C33600,20,34080,30,34320,35L34560,40L34560,100L34320,100C34080,100,33600,100,33120,100C32640,100,32160,100,31680,100C31200,100,30720,100,30240,100C29760,100,29280,100,28800,100C28320,100,27840,100,27360,100C26880,100,26400,100,25920,100C25440,100,24960,100,24480,100C24000,100,23520,100,23040,100C22560,100,22080,100,21600,100C21120,100,20640,100,20160,100C19680,100,19200,100,18720,100C18240,100,17760,100,17280,100C16800,100,16320,100,15840,100C15360,100,14880,100,14400,100C13920,100,13440,100,12960,100C12480,100,12000,100,11520,100C11040,100,10560,100,10080,100C9600,100,9120,100,8640,100C8160,100,7680,100,7200,100C6720,100,6240,100,5760,100C5280,100,4800,100,4320,100C3840,100,3360,100,2880,100C2400,100,1920,100,1440,100C960,100,480,100,240,100L0,100Z"></path><defs><linearGradient id="sw-gradient-1" x1="0" x2="0" y1="1" y2="0"><stop stop-color="rgba(252, 252, 252, 1)" offset="0%"></stop><stop stop-color="rgba(253, 253, 253, 1)" offset="100%"></stop></linearGradient></defs><path style="transform:translate(0, 50px); opacity:0.9" fill="url(#sw-gradient-1)" d="M0,90L240,90C480,90,960,90,1440,88.3C1920,87,2400,83,2880,76.7C3360,70,3840,60,4320,60C4800,60,5280,70,5760,61.7C6240,53,6720,27,7200,28.3C7680,30,8160,60,8640,68.3C9120,77,9600,63,10080,58.3C10560,53,11040,57,11520,58.3C12000,60,12480,60,12960,65C13440,70,13920,80,14400,83.3C14880,87,15360,83,15840,83.3C16320,83,16800,87,17280,85C17760,83,18240,77,18720,65C19200,53,19680,37,20160,36.7C20640,37,21120,53,21600,53.3C22080,53,22560,37,23040,35C23520,33,24000,47,24480,45C24960,43,25440,27,25920,30C26400,33,26880,57,27360,60C27840,63,28320,47,28800,35C29280,23,29760,17,30240,16.7C30720,17,31200,23,31680,30C32160,37,32640,43,33120,38.3C33600,33,34080,17,34320,8.3L34560,0L34560,100L34320,100C34080,100,33600,100,33120,100C32640,100,32160,100,31680,100C31200,100,30720,100,30240,100C29760,100,29280,100,28800,100C28320,100,27840,100,27360,100C26880,100,26400,100,25920,100C25440,100,24960,100,24480,100C24000,100,23520,100,23040,100C22560,100,22080,100,21600,100C21120,100,20640,100,20160,100C19680,100,19200,100,18720,100C18240,100,17760,100,17280,100C16800,100,16320,100,15840,100C15360,100,14880,100,14400,100C13920,100,13440,100,12960,100C12480,100,12000,100,11520,100C11040,100,10560,100,10080,100C9600,100,9120,100,8640,100C8160,100,7680,100,7200,100C6720,100,6240,100,5760,100C5280,100,4800,100,4320,100C3840,100,3360,100,2880,100C2400,100,1920,100,1440,100C960,100,480,100,240,100L0,100Z"></path></svg>