<svg id="wave" style="transform:rotate(180deg); transition: 0.3s" viewBox="0 0 1440 100" version="1.1" xmlns="http://www.w3.org/2000/svg"><defs><linearGradient id="sw-gradient-0" x1="0" x2="0" y1="1" y2="0"><stop stop-color="rgba(45, 43, 82, 1)" offset="0%"></stop><stop stop-color="rgba(45, 43, 82, 1)" offset="100%"></stop></linearGradient></defs><path style="transform:translate(0, 0px); opacity:1" fill="url(#sw-gradient-0)" d="M0,70L120,73.3C240,77,480,83,720,86.7C960,90,1200,90,1440,85C1680,80,1920,70,2160,70C2400,70,2640,80,2880,81.7C3120,83,3360,77,3600,66.7C3840,57,4080,43,4320,41.7C4560,40,4800,50,5040,51.7C5280,53,5520,47,5760,51.7C6000,57,6240,73,6480,81.7C6720,90,6960,90,7200,85C7440,80,7680,70,7920,66.7C8160,63,8400,67,8640,60C8880,53,9120,37,9360,25C9600,13,9840,7,10080,5C10320,3,10560,7,10800,18.3C11040,30,11280,50,11520,58.3C11760,67,12000,63,12240,66.7C12480,70,12720,80,12960,70C13200,60,13440,30,13680,18.3C13920,7,14160,13,14400,20C14640,27,14880,33,15120,36.7C15360,40,15600,40,15840,45C16080,50,16320,60,16560,65C16800,70,17040,70,17160,70L17280,70L17280,100L17160,100C17040,100,16800,100,16560,100C16320,100,16080,100,15840,100C15600,100,15360,100,15120,100C14880,100,14640,100,14400,100C14160,100,13920,100,13680,100C13440,100,13200,100,12960,100C12720,100,12480,100,12240,100C12000,100,11760,100,11520,100C11280,100,11040,100,10800,100C10560,100,10320,100,10080,100C9840,100,9600,100,9360,100C9120,100,8880,100,8640,100C8400,100,8160,100,7920,100C7680,100,7440,100,7200,100C6960,100,6720,100,6480,100C6240,100,6000,100,5760,100C5520,100,5280,100,5040,100C4800,100,4560,100,4320,100C4080,100,3840,100,3600,100C3360,100,3120,100,2880,100C2640,100,2400,100,2160,100C1920,100,1680,100,1440,100C1200,100,960,100,720,100C480,100,240,100,120,100L0,100Z"></path></svg>